<?xml version="1.0" encoding="UTF-8"?>
<!DOCTYPE svg PUBLIC "-//W3C//DTD SVG 1.1//EN" "http://www.w3.org/Graphics/SVG/1.1/DTD/svg11.dtd">
<svg xmlns="http://www.w3.org/2000/svg" version="1.1" width="500px" height="500px" style="shape-rendering:geometricPrecision; text-rendering:geometricPrecision; image-rendering:optimizeQuality; fill-rule:evenodd; clip-rule:evenodd" xmlns:xlink="http://www.w3.org/1999/xlink">
<g><path style="opacity:1" fill="#4185f4" d="M 171.5,103.5 C 171.732,107.942 173.065,111.942 175.5,115.5C 175.345,118.716 176.345,121.383 178.5,123.5C 179.566,125.701 180.233,128.035 180.5,130.5C 180.677,134.708 182.01,138.374 184.5,141.5C 184.054,144.01 184.72,146.01 186.5,147.5C 187.738,149.214 188.405,151.214 188.5,153.5C 188.677,157.708 190.01,161.374 192.5,164.5C 196.7,176.433 200.7,188.433 204.5,200.5C 204.677,204.708 206.01,208.374 208.5,211.5C 212.696,223.421 216.696,235.421 220.5,247.5C 220.677,251.708 222.01,255.374 224.5,258.5C 234.973,288.252 244.64,318.252 253.5,348.5C 218.167,348.5 182.833,348.5 147.5,348.5C 147.343,347.127 147.51,345.793 148,344.5C 153.671,337.663 159.838,331.329 166.5,325.5C 167.043,325.44 167.376,325.107 167.5,324.5C 166.531,321.231 165.198,318.231 163.5,315.5C 156.792,297.045 150.459,278.378 144.5,259.5C 144.5,258.5 144.5,257.5 144.5,256.5C 124.833,256.5 105.167,256.5 85.5,256.5C 83.8333,256.5 82.1667,256.5 80.5,256.5C 79.3516,260.981 79.1849,265.648 80,270.5C 80.05,275.127 80.8833,279.46 82.5,283.5C 83.5808,286.627 84.2474,289.96 84.5,293.5C 84.9967,302.175 87.3301,310.175 91.5,317.5C 92.3382,317.842 92.6716,318.508 92.5,319.5C 92.4021,321.553 93.0687,323.22 94.5,324.5C 98.5796,331.66 102.913,338.66 107.5,345.5C 74.5167,347.493 41.1834,348.16 7.5,347.5C 34.3476,281.942 62.3476,216.942 91.5,152.5C 92.9313,151.22 93.5979,149.553 93.5,147.5C 93.3284,146.508 93.6618,145.842 94.5,145.5C 95.9313,144.22 96.5979,142.553 96.5,140.5C 98.1936,138.284 99.5269,135.784 100.5,133C 100.192,131.541 99.5251,130.374 98.5,129.5C 92.322,114.631 87.322,99.2978 83.5,83.5C 110.502,83.3334 137.502,83.5 164.5,84C 167.332,90.3284 169.665,96.8284 171.5,103.5 Z M 118.5,182.5 C 119.928,188.784 121.928,194.784 124.5,200.5C 124.733,203.542 125.733,206.208 127.5,208.5C 130.928,220.784 134.928,232.784 139.5,244.5C 139.5,245.5 139.5,246.5 139.5,247.5C 119.84,248.131 100.173,248.465 80.5,248.5C 81.2576,235.44 82.5909,222.44 84.5,209.5C 88.1651,194.848 92.1651,180.182 96.5,165.5C 97.7384,163.786 98.405,161.786 98.5,159.5C 100.366,155.104 102.533,150.771 105,146.5C 109.278,158.698 113.778,170.698 118.5,182.5 Z"/></g>
<g><path style="opacity:0.999" fill="#4085f4" d="M 434.5,230.5 C 434.427,232.027 435.094,233.027 436.5,233.5C 439,236.494 441,239.827 442.5,243.5C 442.427,245.027 443.094,246.027 444.5,246.5C 445.89,247.899 446.89,249.566 447.5,251.5C 447.427,253.027 448.094,254.027 449.5,254.5C 450.338,254.842 450.672,255.508 450.5,256.5C 450.427,258.027 451.094,259.027 452.5,259.5C 453.338,259.842 453.672,260.508 453.5,261.5C 453.427,263.027 454.094,264.027 455.5,264.5C 455.427,266.027 456.094,267.027 457.5,267.5C 458.338,267.842 458.672,268.508 458.5,269.5C 458.427,271.027 459.094,272.027 460.5,272.5C 460.75,274.674 461.75,276.341 463.5,277.5C 463.427,279.027 464.094,280.027 465.5,280.5C 465.75,282.674 466.75,284.341 468.5,285.5C 469.142,289.133 471.142,291.466 474.5,292.5C 474.667,280.162 474.5,267.829 474,255.5C 473.268,250.339 472.434,245.339 471.5,240.5C 471.5,240.167 471.5,239.833 471.5,239.5C 471.841,235.84 471.175,232.507 469.5,229.5C 468.659,227.621 468.325,225.621 468.5,223.5C 468.416,219.163 467.416,215.163 465.5,211.5C 465.59,208.848 464.924,206.515 463.5,204.5C 461.595,200.784 460.261,196.784 459.5,192.5C 459.598,190.447 458.931,188.78 457.5,187.5C 451.066,172.629 444.066,157.962 436.5,143.5C 436.573,141.973 435.906,140.973 434.5,140.5C 433.662,140.158 433.328,139.492 433.5,138.5C 433.573,136.973 432.906,135.973 431.5,135.5C 428.474,131.795 425.808,127.795 423.5,123.5C 423.573,121.973 422.906,120.973 421.5,120.5C 421.573,118.973 420.906,117.973 419.5,117.5C 418.833,117.5 418.5,117.167 418.5,116.5C 418.573,114.973 417.906,113.973 416.5,113.5C 415.833,113.5 415.5,113.167 415.5,112.5C 415.573,110.973 414.906,109.973 413.5,109.5C 412.5,109.167 411.833,108.5 411.5,107.5C 411.573,105.973 410.906,104.973 409.5,104.5C 408.5,104.167 407.833,103.5 407.5,102.5C 407.262,100.596 406.262,99.2623 404.5,98.5C 400.835,95.6675 397.668,92.3341 395,88.5C 393.991,86.9751 393.491,85.3084 393.5,83.5C 423.167,83.5 452.833,83.5 482.5,83.5C 482.5,171.833 482.5,260.167 482.5,348.5C 460.092,348.822 437.758,348.489 415.5,347.5C 380.668,291.842 346.335,235.842 312.5,179.5C 312.573,177.973 311.906,176.973 310.5,176.5C 309.11,175.101 308.11,173.434 307.5,171.5C 307.573,169.973 306.906,168.973 305.5,168.5C 304.662,168.158 304.328,167.492 304.5,166.5C 304.573,164.973 303.906,163.973 302.5,163.5C 302.25,161.326 301.25,159.659 299.5,158.5C 299.573,156.973 298.906,155.973 297.5,155.5C 295.176,149.514 291.842,144.18 287.5,139.5C 285.993,159.886 286.493,180.22 289,200.5C 289.204,203.797 290.037,206.797 291.5,209.5C 291.5,210.167 291.5,210.833 291.5,211.5C 291.294,214.495 291.96,217.162 293.5,219.5C 294.301,221.042 294.634,222.708 294.5,224.5C 294.769,229.264 296.102,233.597 298.5,237.5C 301.951,246.504 305.618,255.504 309.5,264.5C 309.229,266.38 309.896,267.713 311.5,268.5C 315.163,275.159 318.83,281.826 322.5,288.5C 322.427,290.027 323.094,291.027 324.5,291.5C 330.164,299.492 335.831,307.492 341.5,315.5C 342.419,318.089 344.086,320.089 346.5,321.5C 347.5,321.833 348.167,322.5 348.5,323.5C 349.08,325.749 350.413,327.415 352.5,328.5C 354.167,329.5 355.5,330.833 356.5,332.5C 359.77,337.44 363.77,341.773 368.5,345.5C 368.5,346.833 367.833,347.5 366.5,347.5C 337.167,347.5 307.833,347.5 278.5,347.5C 278.667,273.833 278.5,200.166 278,126.5C 277.583,125.244 276.75,124.577 275.5,124.5C 265.941,111.602 257.607,97.9349 250.5,83.5C 282.168,83.3334 313.835,83.5 345.5,84C 375.566,132.639 405.232,181.473 434.5,230.5 Z"/></g>
<g><path style="opacity:0.004" fill="#dfe9fd" d="M 404.5,98.5 C 406.262,99.2623 407.262,100.596 407.5,102.5C 405.738,101.738 404.738,100.404 404.5,98.5 Z"/></g>
<g><path style="opacity:0.004" fill="#e7effd" d="M 409.5,104.5 C 410.906,104.973 411.573,105.973 411.5,107.5C 410.094,107.027 409.427,106.027 409.5,104.5 Z"/></g>
<g><path style="opacity:0.973" fill="#bacdfb" d="M 171.5,103.5 C 173.405,107.216 174.739,111.216 175.5,115.5C 173.065,111.942 171.732,107.942 171.5,103.5 Z"/></g>
<g><path style="opacity:0.008" fill="#dfeafd" d="M 413.5,109.5 C 414.906,109.973 415.573,110.973 415.5,112.5C 414.094,112.027 413.427,111.027 413.5,109.5 Z"/></g>
<g><path style="opacity:0.004" fill="#e6eefd" d="M 416.5,113.5 C 417.906,113.973 418.573,114.973 418.5,116.5C 417.094,116.027 416.427,115.027 416.5,113.5 Z"/></g>
<g><path style="opacity:1" fill="#bbcffb" d="M 175.5,115.5 C 176.871,117.936 177.871,120.603 178.5,123.5C 176.345,121.383 175.345,118.716 175.5,115.5 Z"/></g>
<g><path style="opacity:0.008" fill="#e0eafd" d="M 419.5,117.5 C 420.906,117.973 421.573,118.973 421.5,120.5C 420.094,120.027 419.427,119.027 419.5,117.5 Z"/></g>
<g><path style="opacity:0.004" fill="#ebf2fe" d="M 421.5,120.5 C 422.906,120.973 423.573,121.973 423.5,123.5C 422.094,123.027 421.427,122.027 421.5,120.5 Z"/></g>
<g><path style="opacity:1" fill="#74a6f6" d="M 275.5,124.5 C 276.75,124.577 277.583,125.244 278,126.5C 278.5,200.166 278.667,273.833 278.5,347.5C 307.833,347.5 337.167,347.5 366.5,347.5C 337.005,348.498 307.338,348.831 277.5,348.5C 277.667,274.833 277.5,201.166 277,127.5C 276.487,126.473 275.987,125.473 275.5,124.5 Z"/></g>
<g><path style="opacity:0.181" fill="#e6eefd" d="M 98.5,129.5 C 99.5251,130.374 100.192,131.541 100.5,133C 99.5269,135.784 98.1936,138.284 96.5,140.5C 97.9175,136.998 98.5842,133.331 98.5,129.5 Z"/></g>
<g><path style="opacity:1" fill="#a5bff9" d="M 180.5,130.5 C 182.601,133.797 183.935,137.463 184.5,141.5C 182.01,138.374 180.677,134.708 180.5,130.5 Z"/></g>
<g><path style="opacity:0.004" fill="#e9f0fe" d="M 431.5,135.5 C 432.906,135.973 433.573,136.973 433.5,138.5C 432.094,138.027 431.427,137.027 431.5,135.5 Z"/></g>
<g><path style="opacity:0.004" fill="#e7effe" d="M 434.5,140.5 C 435.906,140.973 436.573,141.973 436.5,143.5C 435.094,143.027 434.427,142.027 434.5,140.5 Z"/></g>
<g><path style="opacity:0.108" fill="#edf3fe" d="M 96.5,140.5 C 96.5979,142.553 95.9313,144.22 94.5,145.5C 94.4021,143.447 95.0687,141.78 96.5,140.5 Z"/></g>
<g><path style="opacity:0.284" fill="#e5eefd" d="M 118.5,182.5 C 113.778,170.698 109.278,158.698 105,146.5C 102.533,150.771 100.366,155.104 98.5,159.5C 99.4932,154.687 100.993,150.02 103,145.5C 104.011,144.663 105.178,144.33 106.5,144.5C 110.698,157.095 114.698,169.761 118.5,182.5 Z"/></g>
<g><path style="opacity:1" fill="#b5c9fb" d="M 184.5,141.5 C 185.738,143.214 186.405,145.214 186.5,147.5C 184.72,146.01 184.054,144.01 184.5,141.5 Z"/></g>
<g><path style="opacity:0.104" fill="#e9effd" d="M 93.5,147.5 C 93.5979,149.553 92.9313,151.22 91.5,152.5C 91.4021,150.447 92.0687,148.78 93.5,147.5 Z"/></g>
<g><path style="opacity:1" fill="#c2d5fc" d="M 188.5,153.5 C 190.204,156.939 191.538,160.605 192.5,164.5C 190.01,161.374 188.677,157.708 188.5,153.5 Z"/></g>
<g><path style="opacity:0.016" fill="#eef4fd" d="M 297.5,155.5 C 298.906,155.973 299.573,156.973 299.5,158.5C 298.094,158.027 297.427,157.027 297.5,155.5 Z"/></g>
<g><path style="opacity:0.004" fill="#ecf2fe" d="M 299.5,158.5 C 301.25,159.659 302.25,161.326 302.5,163.5C 300.75,162.341 299.75,160.674 299.5,158.5 Z"/></g>
<g><path style="opacity:0.012" fill="#e9f0fe" d="M 302.5,163.5 C 303.906,163.973 304.573,164.973 304.5,166.5C 303.094,166.027 302.427,165.027 302.5,163.5 Z"/></g>
<g><path style="opacity:0.595" fill="#c5dafb" d="M 482.5,83.5 C 483.499,171.998 483.833,260.665 483.5,349.5C 460.475,350.156 437.809,349.49 415.5,347.5C 437.758,348.489 460.092,348.822 482.5,348.5C 482.5,260.167 482.5,171.833 482.5,83.5 Z"/></g>
<g><path style="opacity:0.643" fill="#dce7fd" d="M 96.5,165.5 C 92.1651,180.182 88.1651,194.848 84.5,209.5C 86.338,194.139 90.338,179.472 96.5,165.5 Z"/></g>
<g><path style="opacity:0.004" fill="#ecf2fe" d="M 305.5,168.5 C 306.906,168.973 307.573,169.973 307.5,171.5C 306.094,171.027 305.427,170.027 305.5,168.5 Z"/></g>
<g><path style="opacity:0.094" fill="#deeafd" d="M 297.5,155.5 C 294.109,151.072 290.942,146.406 288,141.5C 286.763,164.304 287.929,186.97 291.5,209.5C 290.037,206.797 289.204,203.797 289,200.5C 286.493,180.22 285.993,159.886 287.5,139.5C 291.842,144.18 295.176,149.514 297.5,155.5 Z"/></g>
<g><path style="opacity:0.004" fill="#e7effd" d="M 310.5,176.5 C 311.906,176.973 312.573,177.973 312.5,179.5C 311.094,179.027 310.427,178.027 310.5,176.5 Z"/></g>
<g><path style="opacity:0.365" fill="#dce8fd" d="M 457.5,187.5 C 458.931,188.78 459.598,190.447 459.5,192.5C 458.069,191.22 457.402,189.553 457.5,187.5 Z"/></g>
<g><path style="opacity:0.408" fill="#cdddfc" d="M 124.5,200.5 C 126.267,202.792 127.267,205.458 127.5,208.5C 125.733,206.208 124.733,203.542 124.5,200.5 Z"/></g>
<g><path style="opacity:0.98" fill="#c0d4fb" d="M 204.5,200.5 C 206.204,203.939 207.538,207.605 208.5,211.5C 206.01,208.374 204.677,204.708 204.5,200.5 Z"/></g>
<g><path style="opacity:0.053" fill="#e2ecfd" d="M 463.5,204.5 C 464.924,206.515 465.59,208.848 465.5,211.5C 464.076,209.485 463.41,207.152 463.5,204.5 Z"/></g>
<g><path style="opacity:0.065" fill="#dce7fc" d="M 465.5,211.5 C 467.416,215.163 468.416,219.163 468.5,223.5C 466.898,219.761 465.898,215.761 465.5,211.5 Z"/></g>
<g><path style="opacity:0.09" fill="#e1ebfd" d="M 291.5,211.5 C 292.768,213.905 293.435,216.572 293.5,219.5C 291.96,217.162 291.294,214.495 291.5,211.5 Z"/></g>
<g><path style="opacity:0.965" fill="#c7d8fb" d="M 294.5,224.5 C 296.279,228.595 297.612,232.928 298.5,237.5C 296.102,233.597 294.769,229.264 294.5,224.5 Z"/></g>
<g><path style="opacity:0.247" fill="#d8e6fc" d="M 434.5,230.5 C 435.906,230.973 436.573,231.973 436.5,233.5C 435.094,233.027 434.427,232.027 434.5,230.5 Z"/></g>
<g><path style="opacity:0.243" fill="#cfdefc" d="M 469.5,229.5 C 471.175,232.507 471.841,235.84 471.5,239.5C 470.419,236.373 469.753,233.04 469.5,229.5 Z"/></g>
<g><path style="opacity:0.271" fill="#deeafd" d="M 442.5,243.5 C 443.906,243.973 444.573,244.973 444.5,246.5C 443.094,246.027 442.427,245.027 442.5,243.5 Z"/></g>
<g><path style="opacity:1" fill="#d6e4fc" d="M 84.5,209.5 C 82.5909,222.44 81.2576,235.44 80.5,248.5C 100.173,248.465 119.84,248.131 139.5,247.5C 139.5,246.5 139.5,245.5 139.5,244.5C 140.339,245.641 141.006,246.974 141.5,248.5C 120.844,249.5 100.177,249.833 79.5,249.5C 79.4968,235.816 81.1634,222.483 84.5,209.5 Z"/></g>
<g><path style="opacity:0.898" fill="#bfd3fb" d="M 220.5,247.5 C 222.204,250.939 223.538,254.605 224.5,258.5C 222.01,255.374 220.677,251.708 220.5,247.5 Z"/></g>
<g><path style="opacity:0.216" fill="#e8f0fe" d="M 447.5,251.5 C 448.906,251.973 449.573,252.973 449.5,254.5C 448.094,254.027 447.427,253.027 447.5,251.5 Z"/></g>
<g><path style="opacity:0.073" fill="#fdfefe" d="M 85.5,256.5 C 105.167,256.5 124.833,256.5 144.5,256.5C 144.5,257.5 144.5,258.5 144.5,259.5C 124.893,257.858 105.226,256.858 85.5,256.5 Z"/></g>
<g><path style="opacity:0.322" fill="#e5eefe" d="M 450.5,256.5 C 451.906,256.973 452.573,257.973 452.5,259.5C 451.094,259.027 450.427,258.027 450.5,256.5 Z"/></g>
<g><path style="opacity:0.455" fill="#deeafd" d="M 453.5,261.5 C 454.906,261.973 455.573,262.973 455.5,264.5C 454.094,264.027 453.427,263.027 453.5,261.5 Z"/></g>
<g><path style="opacity:0.965" fill="#acc7fa" d="M 80.5,256.5 C 80.873,265.523 81.5397,274.523 82.5,283.5C 80.8833,279.46 80.05,275.127 80,270.5C 79.1849,265.648 79.3516,260.981 80.5,256.5 Z"/></g>
<g><path style="opacity:0.286" fill="#ebf4fe" d="M 455.5,264.5 C 456.906,264.973 457.573,265.973 457.5,267.5C 456.094,267.027 455.427,266.027 455.5,264.5 Z"/></g>
<g><path style="opacity:0.176" fill="#ecf3fc" d="M 309.5,264.5 C 310.674,265.514 311.34,266.847 311.5,268.5C 309.896,267.713 309.229,266.38 309.5,264.5 Z"/></g>
<g><path style="opacity:0.435" fill="#e6eefd" d="M 458.5,269.5 C 459.906,269.973 460.573,270.973 460.5,272.5C 459.094,272.027 458.427,271.027 458.5,269.5 Z"/></g>
<g><path style="opacity:0.141" fill="#e9f0fd" d="M 460.5,272.5 C 462.25,273.659 463.25,275.326 463.5,277.5C 461.75,276.341 460.75,274.674 460.5,272.5 Z"/></g>
<g><path style="opacity:0.933" fill="#d7e5fd" d="M 471.5,240.5 C 472.434,245.339 473.268,250.339 474,255.5C 474.5,267.829 474.667,280.162 474.5,292.5C 471.142,291.466 469.142,289.133 468.5,285.5C 469.885,286.574 471.051,287.907 472,289.5C 472.956,286.07 473.456,282.57 473.5,279C 472.691,266.171 472.024,253.338 471.5,240.5 Z"/></g>
<g><path style="opacity:0.231" fill="#f1f6fe" d="M 463.5,277.5 C 464.906,277.973 465.573,278.973 465.5,280.5C 464.094,280.027 463.427,279.027 463.5,277.5 Z"/></g>
<g><path style="opacity:0.157" fill="#f0f5fe" d="M 465.5,280.5 C 467.25,281.659 468.25,283.326 468.5,285.5C 466.75,284.341 465.75,282.674 465.5,280.5 Z"/></g>
<g><path style="opacity:0.231" fill="#d7e6fb" d="M 322.5,288.5 C 323.906,288.973 324.573,289.973 324.5,291.5C 323.094,291.027 322.427,290.027 322.5,288.5 Z"/></g>
<g><path style="opacity:1" fill="#c1d3fb" d="M 84.5,293.5 C 86.7961,301.401 89.1295,309.401 91.5,317.5C 87.3301,310.175 84.9967,302.175 84.5,293.5 Z"/></g>
<g><path style="opacity:0.42" fill="#cfdffc" d="M 163.5,315.5 C 165.198,318.231 166.531,321.231 167.5,324.5C 167.376,325.107 167.043,325.44 166.5,325.5C 165.101,322.301 164.101,318.968 163.5,315.5 Z"/></g>
<g><path style="opacity:0.463" fill="#cadafb" d="M 341.5,315.5 C 343.914,316.911 345.581,318.911 346.5,321.5C 344.086,320.089 342.419,318.089 341.5,315.5 Z"/></g>
<g><path style="opacity:0.065" fill="#edf3fe" d="M 92.5,319.5 C 93.9313,320.78 94.5979,322.447 94.5,324.5C 93.0687,323.22 92.4021,321.553 92.5,319.5 Z"/></g>
<g><path style="opacity:0.631" fill="#d1e0fc" d="M 348.5,323.5 C 350.587,324.585 351.92,326.251 352.5,328.5C 350.413,327.415 349.08,325.749 348.5,323.5 Z"/></g>
<g><path style="opacity:0.898" fill="#c6d8fc" d="M 356.5,332.5 C 361.23,336.227 365.23,340.56 368.5,345.5C 363.77,341.773 359.77,337.44 356.5,332.5 Z"/></g>
<g><path style="opacity:0.998" fill="#9dc1f9" d="M 107.5,345.5 C 108.404,346.209 108.737,347.209 108.5,348.5C 74.6625,348.832 40.9959,348.498 7.5,347.5C 41.1834,348.16 74.5167,347.493 107.5,345.5 Z"/></g>
</svg>
