<svg xmlns="http://www.w3.org/2000/svg" width="2288" height="1800" viewBox="0 0 2288 1800" version="1.1"><path d="M 1030.175 548.250 L 1030 553 1127 553 C 1180.350 553, 1224 552.663, 1224 552.250 C 1224 551.837, 1180.602 551.623, 1127.559 551.774 L 1031.117 552.048 1030.733 547.774 L 1030.349 543.500 1030.175 548.250 M 1030.196 581.250 L 1030.392 588.500 1030.745 581.585 L 1031.099 574.671 1131.602 575.325 C 1197.788 575.755, 1231.896 575.641, 1231.493 574.989 C 1231.097 574.348, 1195.595 574, 1130.441 574 L 1030 574 1030.196 581.250 M 1053.077 729.499 C 1052.965 730.958, 1061.138 755.195, 1061.590 754.743 C 1061.801 754.533, 1059.988 748.542, 1057.563 741.430 C 1055.138 734.319, 1053.119 728.949, 1053.077 729.499 M 1289.572 804.874 L 1274.644 820.500 1290.028 805.290 C 1298.490 796.924, 1305.207 789.892, 1304.956 789.664 C 1304.705 789.435, 1297.782 796.280, 1289.572 804.874 M 1087.636 811 C 1089.463 814.841, 1102.777 835, 1103.487 835 C 1103.730 835, 1100.457 829.649, 1096.214 823.109 C 1085.957 807.298, 1085.709 806.947, 1087.636 811 M 1257.984 837.750 L 1246.500 849.500 1258.250 838.016 C 1264.713 831.700, 1270 826.413, 1270 826.266 C 1270 825.546, 1268.650 826.836, 1257.984 837.750 M 748.495 1349 C 748.495 1580.825, 748.610 1675.663, 748.750 1559.750 C 748.890 1443.838, 748.890 1254.163, 748.750 1138.250 C 748.610 1022.338, 748.495 1117.175, 748.495 1349 M 1233 956.500 C 1239.307 962.825, 1244.692 968, 1244.967 968 C 1245.242 968, 1240.307 962.825, 1234 956.500 C 1227.693 950.175, 1222.308 945, 1222.033 945 C 1221.758 945, 1226.693 950.175, 1233 956.500 M 1890.292 950.742 C 1894.027 950.935, 1899.877 950.934, 1903.292 950.739 C 1906.706 950.545, 1903.650 950.387, 1896.500 950.389 C 1889.350 950.390, 1886.556 950.550, 1890.292 950.742 M 1104.098 989.613 C 1099.094 994.900, 1095.021 999.963, 1095.047 1000.863 C 1095.094 1002.505, 1100.864 1014.140, 1100.953 1012.772 C 1100.979 1012.372, 1099.797 1009.592, 1098.327 1006.594 L 1095.654 1001.143 1098.197 997.822 C 1099.595 995.995, 1103.765 991.237, 1107.464 987.250 C 1111.162 983.263, 1113.964 980, 1113.691 980 C 1113.419 980, 1109.102 984.326, 1104.098 989.613 M 1270.101 1002.235 C 1273.436 1007.315, 1277.742 1014.290, 1279.669 1017.735 C 1281.596 1021.181, 1283.401 1024, 1283.682 1024 C 1283.962 1024, 1282.744 1021.413, 1280.975 1018.250 C 1276.896 1010.957, 1265.209 993, 1264.541 993 C 1264.264 993, 1266.766 997.156, 1270.101 1002.235 M 522.606 1002 C 525.934 1006.125, 533.289 1015.688, 538.951 1023.250 C 544.613 1030.813, 549.453 1037, 549.708 1037 C 550.820 1037, 521.053 998.078, 518.211 995.817 C 517.301 995.093, 519.279 997.875, 522.606 1002 M 2055.961 1008.500 C 2072.531 1025.874, 2074.272 1027.574, 2068.251 1020.500 C 2065.442 1017.200, 2058.738 1010.225, 2053.353 1005 C 2044.497 996.407, 2044.746 996.741, 2055.961 1008.500 M 2098.029 1059.500 C 2100.328 1062.800, 2105.322 1070.112, 2109.127 1075.750 C 2112.932 1081.388, 2116.285 1086, 2116.578 1086 C 2117.280 1086, 2099.784 1060.372, 2096.439 1056.500 C 2095.014 1054.850, 2095.729 1056.200, 2098.029 1059.500 M 96.494 1417 C 96.494 1610.325, 96.609 1689.412, 96.750 1592.750 C 96.891 1496.087, 96.891 1337.912, 96.750 1241.250 C 96.609 1144.587, 96.494 1223.675, 96.494 1417 M 132.284 1111.285 C 134.083 1113.642, 139.312 1121.517, 143.902 1128.785 C 148.493 1136.053, 152.470 1142, 152.740 1142 C 153.009 1142, 152.587 1140.987, 151.802 1139.750 C 151.017 1138.513, 146.175 1130.638, 141.043 1122.250 C 135.911 1113.862, 131.105 1107, 130.362 1107 C 129.529 1107, 130.264 1108.638, 132.284 1111.285 M 2088.489 1344 C 2088.489 1444.375, 2088.607 1485.438, 2088.750 1435.250 C 2088.893 1385.063, 2088.893 1302.938, 2088.750 1252.750 C 2088.607 1202.563, 2088.489 1243.625, 2088.489 1344 M 125.411 1199 C 125.411 1208.625, 125.561 1212.563, 125.745 1207.750 C 125.928 1202.938, 125.928 1195.063, 125.745 1190.250 C 125.561 1185.438, 125.411 1189.375, 125.411 1199 M 640.087 1189.102 C 640.039 1189.433, 642.450 1194.833, 645.444 1201.102 C 648.438 1207.371, 650.896 1212.050, 650.907 1211.500 C 650.928 1210.354, 640.220 1188.186, 640.087 1189.102 M 2055.957 1205.750 C 2052.514 1211.662, 2049.043 1217.625, 2048.243 1219 C 2046.849 1221.397, 2046.858 1221.417, 2048.469 1219.500 C 2049.969 1217.714, 2052.763 1213.105, 2060.742 1199.250 C 2062.089 1196.912, 2062.971 1195, 2062.704 1195 C 2062.437 1195, 2059.401 1199.838, 2055.957 1205.750 M 1332.425 1230 C 1332.425 1241.825, 1332.569 1246.662, 1332.746 1240.750 C 1332.923 1234.838, 1332.923 1225.162, 1332.746 1219.250 C 1332.569 1213.338, 1332.425 1218.175, 1332.425 1230 M 1995.984 1287.576 C 1986.478 1297.159, 1972.996 1308.416, 1963.415 1314.770 C 1961.783 1315.853, 1961.870 1315.872, 1964 1314.897 C 1967.525 1313.285, 1980.293 1303.703, 1988.062 1296.840 C 1993.776 1291.792, 2008.736 1276, 2007.804 1276 C 2007.619 1276, 2002.300 1281.209, 1995.984 1287.576 M 677.365 1279.500 C 679.778 1287.359, 687.861 1310.300, 687.923 1309.463 C 688.026 1308.079, 678.226 1278.881, 677.399 1278.106 C 677.043 1277.773, 677.028 1278.400, 677.365 1279.500 M 1878.789 1333.741 C 1882.248 1333.937, 1887.648 1333.936, 1890.789 1333.738 C 1893.930 1333.540, 1891.100 1333.380, 1884.500 1333.382 C 1877.900 1333.384, 1875.330 1333.546, 1878.789 1333.741 M 1304.308 1367.095 C 1299.802 1375.843, 1296.273 1383, 1296.466 1383 C 1297.580 1383, 1313.510 1352.155, 1312.764 1351.443 C 1312.619 1351.304, 1308.813 1358.348, 1304.308 1367.095 M 1952.789 1370.484 C 1970.536 1380.012, 1989.241 1395.423, 2005.140 1413.614 C 2009.893 1419.051, 2014.999 1424.850, 2016.488 1426.500 L 2019.195 1429.500 2017.030 1426.500 C 2011.852 1419.326, 1995.686 1401.949, 1986.235 1393.396 C 1975.564 1383.741, 1961.811 1373.953, 1951.849 1368.924 C 1942.851 1364.381, 1943.533 1365.514, 1952.789 1370.484 M 160.076 1413.498 C 159.965 1414.959, 167.139 1436.195, 167.591 1435.742 C 167.802 1435.531, 166.215 1430.215, 164.064 1423.929 C 161.913 1417.643, 160.118 1412.949, 160.076 1413.498 M 2256.489 1591 C 2256.489 1688.625, 2256.606 1728.563, 2256.750 1679.750 C 2256.893 1630.938, 2256.893 1551.063, 2256.750 1502.250 C 2256.606 1453.438, 2256.489 1493.375, 2256.489 1591 M 1053.246 1569.445 L 1053 1690.391 1050.273 1693.445 L 1047.546 1696.500 1050.777 1693.477 L 1054.008 1690.453 1053.750 1569.477 L 1053.492 1448.500 1053.246 1569.445 M 245.519 1592 C 247.326 1595.340, 264.371 1620.111, 265.224 1620.638 C 265.729 1620.950, 261.763 1614.747, 256.410 1606.853 C 247.421 1593.594, 243.451 1588.181, 245.519 1592 M 269.540 1627 C 275.628 1635.639, 285.044 1648, 285.539 1648 C 286.101 1648, 269.242 1625.043, 267.180 1623 C 266.347 1622.175, 267.409 1623.975, 269.540 1627 M 1599.984 1724.750 L 1588.500 1736.500 1600.250 1725.016 C 1606.713 1718.700, 1612 1713.413, 1612 1713.266 C 1612 1712.546, 1610.650 1713.836, 1599.984 1724.750 M 371 1746.500 C 377.858 1753.375, 383.695 1759, 383.970 1759 C 384.245 1759, 378.858 1753.375, 372 1746.500 C 365.142 1739.625, 359.305 1734, 359.030 1734 C 358.755 1734, 364.142 1739.625, 371 1746.500" stroke="none" fill="#96b6fc" fill-rule="evenodd"/><path d="M 2287.498 900 C 2287.498 1395.275, 2287.611 1597.888, 2287.750 1350.250 C 2287.889 1102.613, 2287.889 697.388, 2287.750 449.750 C 2287.611 202.113, 2287.498 404.725, 2287.498 900 M 1043 38.030 C 1043 40.759, 1051.405 65.678, 1069.057 115.280 C 1083.389 155.551, 1094.924 189.400, 1094.690 190.500 C 1094.456 191.600, 1032.082 334.677, 956.081 508.450 C 807.909 847.234, 806.033 851.574, 805.252 857.250 L 804.737 861 961.368 861 L 1118 861 1118 857.456 C 1118 854.588, 1116.788 852.422, 1111.649 846.109 C 1094.808 825.418, 1075.829 791.885, 1064.330 762.500 C 1044.641 712.188, 1033.925 656.819, 1030.412 587.245 L 1029.743 573.990 1130.575 574.245 L 1231.408 574.500 1268.208 682.486 L 1305.008 790.472 1287.736 807.986 C 1242.971 853.380, 1242 854.438, 1242 857.827 L 1242 861 1408 861 L 1574 861 1574 857.086 C 1574 854.561, 1561.190 815.587, 1537.926 747.336 C 1518.085 689.126, 1456.830 509.425, 1401.804 348 C 1346.777 186.575, 1300.196 49.888, 1298.289 44.250 L 1294.823 34 1168.911 34 L 1043 34 1043 38.030 M 1103.909 226.739 C 1099.391 238.624, 1076.115 304.909, 1071.688 318.500 C 1047.758 391.965, 1034.826 462.063, 1030.503 541.750 L 1029.893 553 1126.946 553 C 1180.326 553, 1224 552.870, 1224 552.712 C 1224 552.554, 1210.711 513.291, 1194.469 465.462 C 1178.226 417.633, 1153.139 343.742, 1138.719 301.260 L 1112.500 224.020 1108.725 224.010 C 1105.527 224.002, 1104.792 224.418, 1103.909 226.739 M 12 930.037 C 12 933.411, 14.194 937.013, 56.393 1002.931 L 97 1066.363 97 1417.181 L 97 1768 241 1768 L 385 1768 385 1764.359 C 385 1761.019, 383.780 1759.466, 370.250 1745.591 C 296.080 1669.528, 241.495 1594.836, 200.989 1513.977 C 166.626 1445.383, 143.488 1371.679, 132.559 1296 C 126.803 1256.138, 125.001 1223.185, 125.001 1157.750 L 125 1107 128.364 1107 L 131.728 1107 335.023 1438.500 L 538.318 1770 643.159 1770 L 748 1770 748 1349 L 748 928 606.500 928 L 465 928 465 931.601 C 465 934.794, 466.223 936.522, 475.797 946.851 C 530.793 1006.187, 574.120 1065.910, 613.454 1136.601 C 673.262 1244.092, 708.634 1353.704, 719.105 1464 C 719.705 1470.325, 720.422 1501.487, 720.698 1533.250 L 721.200 1591 717.350 1590.995 L 713.500 1590.990 510.866 1259.745 L 308.231 928.500 160.116 928.247 L 12 927.993 12 930.037 M 802 930.452 C 802 931.800, 803.629 936.637, 805.621 941.202 C 807.612 945.766, 864.312 1062.085, 931.621 1199.689 L 1054 1449.878 1053.961 1570.189 L 1053.922 1690.500 1027.852 1719 C 990.259 1760.095, 990 1760.407, 990 1764.526 L 990 1768 1175.500 1768 L 1361 1768 1361 1764.595 C 1361 1760.770, 1361.786 1761.707, 1320.661 1716.500 L 1297.008 1690.500 1297.004 1564.289 L 1297 1438.078 1421.299 1195.289 C 1489.663 1061.755, 1547.713 948.072, 1550.299 942.661 C 1552.885 937.249, 1555 931.737, 1555 930.411 L 1555 928 1382.500 928 L 1210 928 1210 931.392 C 1210 934.411, 1210.918 935.563, 1218.354 941.876 C 1262.315 979.199, 1294.715 1032.223, 1314.362 1099 C 1322.483 1126.601, 1326.916 1149.442, 1330.666 1183 C 1333.120 1204.968, 1333.124 1255.960, 1330.672 1275.500 C 1326.286 1310.455, 1320.569 1334.130, 1311.430 1355.184 C 1308.788 1361.270, 1283.876 1406.219, 1283.412 1405.737 C 1282.653 1404.946, 1095.684 1003.124, 1095.313 1001.484 C 1094.962 999.934, 1101.791 992.093, 1124.926 967.484 C 1153.310 937.292, 1154.995 935.290, 1154.997 931.750 L 1155 928 978.500 928 L 802 928 802 930.452 M 1564 931.678 C 1564 935.617, 1564.973 936.621, 1616.638 985.990 L 1630.776 999.500 1630.888 1347.541 L 1631 1695.582 1597.500 1727.851 C 1564.628 1759.515, 1564 1760.194, 1564 1764.060 L 1564 1768 1910 1768 L 2256 1768 2256 1591 L 2256 1414 2252.659 1414 C 2249.448 1414, 2248.936 1414.591, 2239.471 1429.250 C 2214.502 1467.921, 2184.734 1514.675, 2163.230 1549 C 2112.663 1629.715, 2091.940 1658.617, 2064.115 1687.240 C 2037.421 1714.700, 2010.127 1730.368, 1975.500 1738.112 C 1954.601 1742.786, 1940.827 1744.096, 1906.250 1744.701 L 1873 1745.283 1873 1550.141 L 1873 1355 1887.622 1355 C 1895.675 1355, 1906.935 1355.697, 1912.687 1356.551 C 1968.875 1364.894, 2015.087 1409.692, 2073.558 1512.500 C 2077.312 1519.100, 2080.860 1524.831, 2081.442 1525.235 C 2082.024 1525.639, 2083.738 1525.976, 2085.250 1525.985 L 2088 1526 2088 1344 L 2088 1162 2085.155 1162 C 2081.603 1162, 2080.480 1163.317, 2074.502 1174.500 C 2056.962 1207.308, 2036.290 1240.414, 2021.113 1260 C 1986.136 1305.137, 1956.440 1325.545, 1917 1331.549 C 1911.775 1332.344, 1899.737 1333.292, 1890.250 1333.655 L 1873 1334.314 1873 1142.006 L 1873 949.697 1896.750 950.302 C 1935.679 951.293, 1958.026 954.134, 1980.598 960.962 C 2038.524 978.484, 2072.842 1014.207, 2149.713 1137 C 2160.903 1154.875, 2186.133 1194.567, 2205.779 1225.205 L 2241.500 1280.910 2245.250 1280.955 L 2249 1281 2249 1104.500 L 2249 928 1906.500 928 L 1564 928 1564 931.678" stroke="none" fill="#0c64fc" fill-rule="evenodd"/></svg>