<?xml version="1.0" standalone="no"?>
<!DOCTYPE svg PUBLIC "-//W3C//DTD SVG 20010904//EN"
 "http://www.w3.org/TR/2001/REC-SVG-20010904/DTD/svg10.dtd">
<svg version="1.0" xmlns="http://www.w3.org/2000/svg"
 width="500.000000pt" height="500.000000pt" viewBox="0 0 500.000000 500.000000"
 preserveAspectRatio="xMidYMid meet">
<metadata>
Created by potrace 1.14, written by Peter Selinger 2001-2017
</metadata>
<g transform="translate(0.000000,500.000000) scale(0.100000,-0.100000)"
fill="#000000" stroke="none">
<path d="M3826 4888 c-171 -22 -388 -106 -636 -246 -136 -77 -436 -298 -565
-415 -11 -10 -37 -32 -57 -48 l-37 -30 -34 54 c-86 134 -243 199 -467 192
-210 -6 -380 -76 -517 -213 -14 -14 -57 -68 -96 -121 -38 -53 -73 -98 -76
-101 -38 -32 -105 -157 -147 -275 -28 -78 -29 -85 -29 -280 0 -197 1 -201 32
-303 36 -116 105 -267 153 -337 l31 -46 -44 -77 c-60 -104 -121 -217 -187
-345 -30 -59 -59 -107 -65 -107 -5 0 -31 16 -58 35 -77 57 -119 127 -143 239
-6 24 -19 47 -36 59 -26 19 -29 19 -115 4 -184 -34 -287 -114 -468 -362 -98
-135 -140 -211 -183 -330 -23 -63 -26 -88 -30 -261 -3 -172 -2 -199 18 -270
72 -266 267 -467 551 -568 l94 -34 21 -113 c70 -369 253 -553 559 -564 273
-10 577 100 940 340 237 157 402 294 663 550 84 82 157 152 163 153 5 2 37
-23 70 -57 112 -112 246 -154 418 -133 342 42 624 298 895 812 95 179 184 362
202 414 20 54 18 73 -13 133 l-26 53 18 41 c11 23 18 50 18 60 -4 55 -106 129
-156 113 -12 -4 -54 -37 -93 -73 -115 -107 -218 -151 -355 -151 -39 0 -61 4
-64 13 -3 7 50 123 118 257 139 277 229 482 298 682 26 75 50 141 53 147 4 6
27 20 53 31 70 31 164 133 212 232 65 131 76 188 76 378 0 175 -9 299 -26 365
-37 136 -146 247 -287 289 -45 14 -79 33 -118 67 -113 99 -207 137 -364 147
-58 4 -132 4 -164 0z"/>
<path d="M2526 4798 c-8 -52 -52 -133 -85 -159 -13 -11 -56 -29 -95 -41 l-71
-21 70 -22 c39 -12 80 -28 93 -36 33 -20 61 -69 81 -140 l17 -62 23 68 c12 38
31 82 43 98 22 31 83 62 158 82 l45 11 -72 22 c-42 13 -87 35 -106 52 -33 29
-77 121 -77 160 0 38 -18 28 -24 -12z"/>
</g>
</svg>
